<svg width="80" height="80" viewBox="0 0 80 80" fill="none" xmlns="http://www.w3.org/2000/svg">
<path d="M40 80C17.949 80 0 62.0535 0 39.9945C0 17.9354 17.949 0 40 0C62.051 0 80 17.9465 80 39.9945C80 62.0424 62.051 79.9889 40 79.9889V80ZM40 2.49411C19.3237 2.49411 2.49446 19.321 2.49446 39.9945C2.49446 60.6679 19.3237 77.4948 40 77.4948C60.6763 77.4948 77.5055 60.6679 77.5055 39.9945C77.5055 19.321 60.6874 2.49411 40 2.49411Z" fill="#121416"/>
<path d="M39.8534 73.71C21.1864 73.71 6 58.5254 6 39.8605C6 21.1957 21.1864 6 39.8534 6C58.5204 6 73.7068 21.1846 73.7068 39.8495C73.7068 58.5143 58.5204 73.6989 39.8534 73.6989V73.71ZM39.8534 8.49382C22.5609 8.49382 8.49411 22.559 8.49411 39.8495C8.49411 57.1399 22.5609 71.2051 39.8534 71.2051C57.1459 71.2051 71.2127 57.1399 71.2127 39.8495C71.2127 22.559 57.157 8.49382 39.8534 8.49382Z" fill="#121416"/>
<path d="M67.9457 37.5118C65.6954 41.6576 63.4563 46.2135 61.3834 50.581C58.5235 43.4201 47.6602 19.0998 47.6602 19.0998C47.6602 19.0998 42.9159 31.2932 41.497 35.45C40.0338 32.0691 37.0409 25.529 35.3338 21.7934C34.5911 20.1196 34.1366 19.0998 34.1366 19.0998C34.1366 19.0998 34.1366 19.1108 34.1145 19.1441C34.0701 19.0554 34.0479 19 34.0479 19L27.8958 35.3059C25.7342 30.3177 20.5132 19 20.5132 19L12 41.5578L18.9281 27.6684L32.7288 60.0586C32.7288 60.0586 38.6814 43.276 38.7812 42.9767L45.1661 57.4869L46.2635 60.0586C46.2635 60.0586 46.2635 60.0364 46.2746 60.0143L46.3411 60.1695C46.3411 60.1695 49.9881 50.0489 52.4157 43.2317L59.8759 60.1695C59.8759 60.1695 66.9924 40.4272 67.9457 37.5229V37.5118ZM41.7631 36.0597C43.2595 33.2552 44.6784 30.4064 46.064 27.5354C46.8843 29.6526 47.7157 31.7588 48.5581 33.8538C49.6445 36.5475 50.7973 39.3409 51.9834 42.1675C50.5645 44.9498 49.1789 47.7987 47.8709 50.5699C47.3499 49.2619 46.5628 47.3885 45.6317 45.2048C44.3791 42.1564 43.0933 39.097 41.7741 36.0486L41.7631 36.0597ZM35.0123 33.8649C36.1319 36.6361 37.318 39.5293 38.5373 42.4336C38.3267 42.8215 38.1161 43.2095 37.9055 43.5975C36.6529 45.9475 35.4668 48.3197 34.2918 50.714C32.363 45.881 30.3345 40.9814 28.2283 36.1041L29.4034 33.743C30.4453 31.7366 31.4541 29.708 32.4406 27.6684L33.9703 31.2489C34.314 32.1246 34.6576 32.9892 35.0012 33.8649H35.0123Z" fill="#121416"/>
</svg>
