<svg width="504" height="340" viewBox="0 0 504 340" fill="none" xmlns="http://www.w3.org/2000/svg">
<path d="M252 339.23L0 169.626L252 0L504 169.626L252 339.252V339.23ZM13.5312 169.626L252.022 330.144L490.512 169.626L252 9.10713L13.5312 169.626Z" fill="#121416"/>
<path d="M252 310.225C174.481 310.225 111.4 247.144 111.4 169.626C111.4 92.1071 174.481 29.0046 252 29.0046C329.518 29.0046 392.599 92.0856 392.599 169.604C392.599 247.123 329.518 310.204 252 310.204V310.225ZM252 36.558C178.646 36.558 118.954 96.2507 118.954 169.604C118.954 242.958 178.646 302.65 252 302.65C325.353 302.65 385.046 242.958 385.046 169.604C385.046 96.2507 325.353 36.558 252 36.558Z" fill="#121416"/>
<path d="M252 271.185C195.998 271.185 150.44 225.628 150.44 169.626C150.44 113.623 195.998 68.0662 252 68.0662C308.002 68.0662 353.56 113.623 353.56 169.626C353.56 225.628 308.002 271.185 252 271.185ZM252 75.6195C200.163 75.6195 157.994 117.789 157.994 169.626C157.994 221.463 200.163 263.632 252 263.632C303.837 263.632 346.006 221.463 346.006 169.626C346.006 117.789 303.837 75.6195 252 75.6195Z" fill="#121416"/>
<path d="M395.858 169.302C406.929 168.396 423.007 167.576 434.272 167.036C447.199 165.936 459.975 165.784 472.686 169.302V169.95C459.975 173.467 447.199 173.316 434.272 172.216L415.065 171.244C408.656 170.813 402.268 170.468 395.858 169.95V169.302Z" fill="#121416"/>
<path d="M399.441 175.733C409.562 176.057 419.684 176.575 429.784 177.309C440.099 177.503 450.091 178.647 459.565 183.373L459.479 184.02C449.12 186.243 439.171 184.819 429.136 182.445C419.166 180.632 409.26 178.603 399.354 176.381L399.441 175.733Z" fill="#121416"/>
<path d="M403.325 182.618C410.49 183.74 417.612 185.056 424.69 186.61C432.049 187.603 439.214 189.696 444.76 194.94L444.566 195.566C437.056 196.904 429.913 194.768 423.201 191.574C416.425 189.005 409.735 186.2 403.131 183.243L403.325 182.618Z" fill="#121416"/>
<path d="M399.376 162.871C409.26 160.648 419.187 158.62 429.158 156.807C439.193 154.433 449.163 153.009 459.5 155.231L459.587 155.879C450.113 160.627 440.121 161.749 429.805 161.943C419.705 162.677 409.584 163.195 399.462 163.519L399.376 162.871Z" fill="#121416"/>
<path d="M403.131 155.987C409.756 153.03 416.446 150.225 423.201 147.656C429.913 144.484 437.056 142.326 444.566 143.664L444.76 144.29C439.193 149.512 432.028 151.627 424.69 152.62C417.612 154.152 410.49 155.469 403.325 156.613L403.131 155.987Z" fill="#121416"/>
<path d="M108.142 169.95C97.0709 170.856 80.9932 171.676 69.7279 172.216C56.801 173.316 44.0251 173.467 31.314 169.95V169.302C44.0251 165.784 56.801 165.936 69.7279 167.036L88.9349 168.007C95.3444 168.439 101.732 168.784 108.142 169.302V169.95Z" fill="#121416"/>
<path d="M104.559 163.497C94.4375 163.173 84.316 162.655 74.2162 161.922C63.9005 161.727 53.9086 160.584 44.4346 155.857L44.5209 155.21C54.8797 152.987 64.8285 154.412 74.8636 156.785C84.834 158.598 94.7396 160.627 104.645 162.85L104.559 163.497Z" fill="#121416"/>
<path d="M100.696 156.613C93.5312 155.49 86.4095 154.174 79.331 152.62C71.9719 151.627 64.807 149.534 59.2607 144.29L59.455 143.664C66.9651 142.326 74.1084 144.463 80.8201 147.657C87.5965 150.225 94.2865 153.03 100.89 155.987L100.696 156.613Z" fill="#121416"/>
<path d="M104.645 176.381C94.7612 178.604 84.834 180.632 74.8636 182.445C64.8285 184.819 54.8581 186.243 44.5209 184.02L44.4346 183.373C53.9086 178.625 63.9005 177.503 74.2162 177.309C84.316 176.575 94.4375 176.057 104.559 175.733L104.645 176.381Z" fill="#121416"/>
<path d="M100.869 183.243C94.2439 186.2 87.5539 189.005 80.799 191.574C74.0874 194.746 66.9441 196.904 59.434 195.566L59.2397 194.94C64.8076 189.718 71.9725 187.603 79.31 186.61C86.3885 185.078 93.5102 183.761 100.675 182.618L100.869 183.243Z" fill="#121416"/>
<path d="M357.811 169.626L365.753 160.799H372.637L380.622 169.626L372.637 178.452H365.753L357.811 169.626ZM369.184 173.489L372.421 169.626L369.184 165.763L365.99 169.626L369.184 173.489Z" fill="#121416"/>
<path d="M123.184 169.626L131.125 160.799H138.01L145.995 169.626L138.01 178.452H131.125L123.184 169.626ZM134.535 173.489L137.772 169.626L134.535 165.763L131.341 169.626L134.535 173.489Z" fill="#121416"/>
<path d="M152.124 212.572L156.008 218.377L147.052 229.34L160.67 225.326L165.547 232.621L156.656 243.692L170.208 239.591L174.115 245.418L154.174 250.338L149.663 243.605L158.771 231.865L144.462 235.814L139.974 229.124L152.124 212.55V212.572Z" fill="#121416"/>
<path d="M178.258 247.598L194.66 260.481L192.264 263.524L181.452 255.043L179.013 258.151L188.401 265.531L186.157 268.38L176.769 260.999L174.287 264.15L185.099 272.653L182.704 275.696L166.302 262.812L178.236 247.619L178.258 247.598Z" fill="#121416"/>
<path d="M200.012 263.632L212.507 269.006C214.082 269.675 215.399 270.495 216.478 271.423C217.557 272.373 218.312 273.344 218.744 274.38C219.175 275.415 219.197 276.343 218.809 277.228C218.442 278.07 217.73 278.674 216.65 279.041C215.571 279.408 214.277 279.494 212.766 279.3C214.125 280.336 215.097 281.415 215.679 282.537C216.262 283.659 216.37 284.695 215.96 285.602C215.55 286.53 214.795 287.199 213.672 287.609C212.55 288.019 211.191 288.127 209.572 287.976C207.975 287.803 206.313 287.35 204.565 286.594L192.394 281.372L200.012 263.632ZM205.515 282.904C206.421 283.292 207.263 283.422 208.018 283.293C208.773 283.163 209.291 282.818 209.55 282.235C209.788 281.674 209.68 281.07 209.248 280.444C208.795 279.818 208.126 279.3 207.22 278.912L202.127 276.732L200.422 280.703L205.515 282.882V282.904ZM208.817 275.782C209.507 276.084 210.133 276.149 210.716 275.998C211.298 275.847 211.708 275.523 211.924 275.005C212.14 274.488 212.118 273.97 211.816 273.452C211.514 272.934 211.018 272.524 210.349 272.222L205.062 269.956L203.529 273.516L208.817 275.782Z" fill="#121416"/>
<path d="M223.686 274.595L230.635 275.156L233.678 288.99L238.986 275.825L247.727 276.516L250.878 290.349L256.079 277.185L263.071 277.746L254.546 296.435L246.475 295.788L242.936 281.372L237.152 295.054L229.124 294.407L223.664 274.595H223.686Z" fill="#121416"/>
<path d="M275.933 292.766C273.861 292.378 272.113 291.579 270.667 290.371C269.222 289.162 268.294 287.63 267.84 285.796C267.387 283.961 267.517 282.17 268.207 280.422C268.898 278.674 270.085 277.142 271.746 275.847C273.408 274.552 275.372 273.603 277.681 273.041C279.99 272.48 282.17 272.372 284.242 272.761C286.314 273.149 288.062 273.948 289.508 275.156C290.953 276.365 291.881 277.897 292.335 279.732C292.788 281.566 292.658 283.357 291.946 285.105C291.234 286.853 290.069 288.385 288.407 289.68C286.745 290.975 284.781 291.925 282.472 292.486C280.163 293.047 277.983 293.155 275.912 292.766H275.933ZM277.336 287.63C278.501 288.45 279.882 288.666 281.458 288.256C283.033 287.868 284.156 287.047 284.803 285.774C285.45 284.501 285.58 283.077 285.191 281.48C284.803 279.883 284.026 278.674 282.861 277.876C281.695 277.056 280.314 276.84 278.739 277.25C277.163 277.638 276.041 278.458 275.394 279.732C274.746 281.005 274.617 282.429 275.005 284.026C275.394 285.623 276.171 286.832 277.336 287.63Z" fill="#121416"/>
<path d="M294.989 268.164L305.305 262.294C307.118 261.258 308.909 260.568 310.657 260.222C312.405 259.877 313.959 259.877 315.297 260.266C316.635 260.654 317.606 261.366 318.189 262.402C318.814 263.503 318.901 264.711 318.426 266.049C317.973 267.366 317.045 268.682 315.664 269.977L325.655 272.934L318.706 276.883L309.642 273.991L307.225 275.351L310.678 281.436L304.485 284.954L294.924 268.164H294.989ZM309.47 269.61C310.419 269.071 311.11 268.445 311.52 267.733C311.93 267.02 311.973 266.373 311.628 265.769C311.261 265.143 310.657 264.841 309.794 264.884C308.93 264.927 307.959 265.251 306.902 265.855L303.082 268.035L305.326 271.984L309.448 269.632L309.47 269.61Z" fill="#121416"/>
<path d="M320.239 252.475L325.289 247.447L329.497 251.698L330.188 242.591L335.82 236.98L334.547 250.144L350.495 249.626L344.755 255.324L334.029 255.496L333.964 256.208L338.885 261.15L333.835 266.179L320.239 252.475Z" fill="#121416"/>
<path d="M357.207 238.512C355.739 239.721 354.272 240.476 352.783 240.778C351.294 241.08 349.955 240.886 348.769 240.174L352.416 233.98C352.869 234.239 353.408 234.325 354.056 234.174C354.682 234.045 355.329 233.7 355.977 233.182C356.624 232.664 357.185 231.995 357.66 231.196C358.199 230.29 358.502 229.427 358.609 228.628C358.696 227.83 358.545 227.29 358.113 227.031C357.768 226.837 357.358 226.858 356.883 227.139C356.408 227.42 355.912 227.83 355.415 228.369C354.898 228.909 354.207 229.707 353.322 230.743C352.006 232.318 350.84 233.592 349.869 234.541C348.876 235.491 347.841 236.203 346.718 236.656C345.596 237.109 344.517 237.023 343.481 236.419C342.445 235.815 341.776 234.843 341.474 233.505C341.172 232.167 341.237 230.635 341.668 228.909C342.1 227.182 342.834 225.434 343.87 223.643C344.927 221.873 346.114 220.449 347.474 219.37C348.833 218.291 350.193 217.643 351.596 217.406C352.998 217.169 354.25 217.406 355.415 218.097L351.768 224.29C350.15 223.341 348.704 223.923 347.452 226.038C346.913 226.966 346.61 227.786 346.546 228.52C346.503 229.232 346.654 229.707 347.021 229.923C347.344 230.117 347.711 230.074 348.164 229.793C348.617 229.513 349.071 229.124 349.545 228.606C350.02 228.089 350.689 227.312 351.531 226.319C352.847 224.7 354.013 223.405 355.027 222.413C356.02 221.42 357.099 220.686 358.264 220.233C359.429 219.78 360.552 219.866 361.674 220.535C362.753 221.183 363.444 222.175 363.746 223.535C364.048 224.895 363.983 226.47 363.508 228.261C363.034 230.052 362.257 231.908 361.113 233.829C359.991 235.728 358.696 237.282 357.228 238.491L357.207 238.512Z" fill="#121416"/>
<path d="M131.341 130.672L133.974 124.047L147.742 129.529L152.21 118.285L156.375 119.947L149.275 137.794L131.319 130.651L131.341 130.672Z" fill="#121416"/>
<path d="M161.058 110.775C159.224 111.811 157.368 112.307 155.468 112.285C153.569 112.264 151.886 111.703 150.375 110.581C148.865 109.458 147.807 108.012 147.225 106.221C146.642 104.43 146.577 102.509 147.009 100.438C147.44 98.3874 148.368 96.3803 149.771 94.4812C151.174 92.5605 152.792 91.093 154.648 90.0787C156.483 89.0428 158.339 88.5465 160.238 88.5681C162.115 88.5681 163.82 89.1507 165.331 90.2729C166.842 91.3952 167.899 92.8411 168.482 94.6323C169.064 96.4235 169.129 98.3658 168.698 100.416C168.266 102.466 167.338 104.473 165.935 106.372C164.532 108.293 162.914 109.76 161.058 110.775ZM158.857 105.919C160.281 105.811 161.468 105.077 162.439 103.761C163.41 102.445 163.734 101.107 163.432 99.7038C163.13 98.3226 162.31 97.1357 160.993 96.1645C159.677 95.1934 158.296 94.7618 156.893 94.8913C155.49 95.0207 154.282 95.7329 153.31 97.0493C152.339 98.3658 152.016 99.7038 152.318 101.107C152.62 102.509 153.44 103.675 154.756 104.646C156.073 105.617 157.454 106.049 158.857 105.919Z" fill="#121416"/>
<path d="M166.043 76.0727L174.179 69.9006L188.185 76.936L179.682 65.7355L185.077 61.6351L196.753 77.0223L188.617 83.1944L175.193 76.936L183.113 87.3811L177.718 91.4815L166.043 76.0943V76.0727Z" fill="#121416"/>
<path d="M207.133 70.9148C205.234 70.699 203.572 70.03 202.126 68.9294C200.68 67.8288 199.644 66.4044 198.975 64.6348C198.306 62.8652 198.263 61.074 198.781 59.2396C199.299 57.4052 200.335 55.7435 201.889 54.2544C203.443 52.7653 205.363 51.5784 207.651 50.7151C209.809 49.9166 211.881 49.485 213.888 49.4634C215.873 49.4203 217.578 49.7656 218.981 50.4777C220.384 51.1899 221.333 52.2258 221.83 53.5638L214.945 56.1104C214.751 55.5708 214.363 55.1392 213.801 54.8155C213.24 54.4918 212.55 54.3191 211.708 54.3191C210.888 54.3191 210.025 54.4702 209.162 54.7939C208.147 55.1608 207.327 55.7435 206.701 56.5204C206.076 57.2973 205.665 58.1821 205.536 59.1533C205.385 60.1244 205.493 61.0955 205.86 62.0883C206.227 63.0594 206.788 63.8795 207.521 64.5269C208.277 65.1743 209.14 65.5844 210.133 65.757C211.125 65.9297 212.118 65.8218 213.132 65.4549C214.168 65.0664 215.032 64.4837 215.722 63.6852C216.413 62.8868 216.844 62.0883 217.017 61.3113L211.255 63.4479L209.938 59.9086L222.412 55.2687L225.995 64.9154L219.995 67.1382L218.7 63.6205C218.679 65.0664 218.226 66.3397 217.319 67.3972C216.434 68.4762 214.967 69.3826 212.981 70.1164C210.996 70.8501 209.054 71.1091 207.155 70.8933L207.133 70.9148Z" fill="#121416"/>
<path d="M248.309 42.7302L261.884 43.4856C263.588 43.5719 265.099 43.8956 266.437 44.392C267.775 44.9099 268.833 45.5789 269.566 46.399C270.322 47.2191 270.667 48.1039 270.602 49.0534C270.559 49.9598 270.084 50.7799 269.178 51.4921C268.293 52.2042 267.106 52.7438 265.617 53.0675C267.257 53.5854 268.531 54.2544 269.458 55.1177C270.386 55.9809 270.84 56.9089 270.775 57.9016C270.71 58.9159 270.235 59.8007 269.307 60.5776C268.379 61.3545 267.149 61.9372 265.596 62.3257C264.042 62.7141 262.315 62.8652 260.416 62.7573L247.187 62.0235L248.244 42.7302H248.309ZM260.114 58.9375C261.107 58.9806 261.927 58.8296 262.617 58.4411C263.308 58.0527 263.653 57.5563 263.696 56.9304C263.74 56.3262 263.437 55.7867 262.79 55.355C262.164 54.9234 261.344 54.6645 260.373 54.6213L254.848 54.3192L254.611 58.6353L260.136 58.9375H260.114ZM260.761 51.1036C261.495 51.1468 262.121 50.9957 262.617 50.6504C263.114 50.3051 263.373 49.8519 263.416 49.2908C263.437 48.7297 263.243 48.2549 262.768 47.8665C262.294 47.478 261.711 47.2622 260.977 47.219L255.237 46.8953L255.021 50.7799L260.761 51.1036Z" fill="#121416"/>
<path d="M283.012 46.5718L302.78 53.2403L301.55 56.909L288.515 52.5281L287.242 56.2832L298.572 60.103L297.406 63.5344L286.076 59.7145L284.803 63.5128L297.838 67.8937L296.608 71.5624L276.84 64.9155L283.012 46.6149V46.5718Z" fill="#121416"/>
<path d="M320.951 63.4911L327.209 67.8504L325.051 89.8629L318.901 85.5899L319.526 80.8205L311.434 75.2095L307.204 77.4755L301.053 73.2025L320.929 63.4911H320.951ZM320.152 76.5475L321.016 70.0733L315.253 73.1593L320.152 76.5691V76.5475Z" fill="#121416"/>
<path d="M332.41 97.0924C331.849 95.0207 331.827 93.0784 332.324 91.244C332.82 89.4096 333.791 87.9205 335.259 86.7336C336.726 85.5467 338.409 84.9208 340.287 84.8129C342.186 84.7266 344.064 85.1582 345.984 86.1293C347.883 87.1005 349.588 88.5248 351.099 90.4024C352.502 92.1288 353.495 93.92 354.077 95.776C354.66 97.6104 354.789 99.3368 354.487 100.912C354.185 102.488 353.43 103.739 352.264 104.71L347.625 98.97C348.466 98.301 348.898 97.3946 348.919 96.2939C348.919 95.1933 348.552 94.1358 347.754 93.1431C347.128 92.3662 346.351 91.8051 345.445 91.4814C344.538 91.1577 343.589 91.0714 342.618 91.244C341.647 91.4167 340.74 91.8267 339.92 92.4957C339.1 93.1647 338.496 93.9416 338.129 94.8696C337.762 95.776 337.633 96.7255 337.762 97.6751C337.892 98.6247 338.28 99.5095 338.906 100.286C339.704 101.279 340.654 101.883 341.733 102.099C342.812 102.315 343.783 102.099 344.625 101.409L349.265 107.149C348.078 108.099 346.697 108.552 345.1 108.53C343.503 108.509 341.841 108.012 340.179 107.041C338.496 106.092 336.964 104.732 335.561 103.006C334.05 101.128 333.036 99.1642 332.475 97.114L332.41 97.0924Z" fill="#121416"/>
<path d="M364.177 110.063L366.961 116.623L359.969 119.601L363.012 126.745L370.004 123.766L372.788 130.327L355.005 137.88L352.221 131.32L359.214 128.342L356.171 121.198L349.178 124.177L346.395 117.616L364.177 110.063Z" fill="#121416"/>
<path d="M333.079 159.332C326.562 171.352 320.066 184.56 314.067 197.206C305.78 176.445 274.293 105.962 274.293 105.962C274.293 105.962 260.525 141.312 256.424 153.354C252.173 143.556 243.519 124.586 238.555 113.753C236.397 108.897 235.081 105.962 235.081 105.962C235.081 105.962 235.081 106.005 235.038 106.092C234.908 105.811 234.843 105.66 234.843 105.66L217.017 152.901C210.737 138.441 195.631 105.66 195.631 105.66L170.964 171.029L191.034 130.78L231.023 224.657C231.023 224.657 248.267 176.014 248.547 175.172L267.064 217.212L270.236 224.657C270.236 224.657 270.236 224.614 270.279 224.528L270.473 224.981C270.473 224.981 281.048 195.652 288.083 175.906L309.707 224.981C309.707 224.981 330.339 167.77 333.101 159.353L333.079 159.332ZM257.18 155.123C261.517 146.987 265.639 138.722 269.632 130.435C272.006 136.564 274.423 142.671 276.861 148.757C280.012 156.548 283.336 164.662 286.767 172.841C282.667 180.891 278.652 189.156 274.833 197.206C273.322 193.429 271.056 187.991 268.337 181.668C264.711 172.841 260.978 163.972 257.18 155.145V155.123ZM237.649 148.735C240.886 156.764 244.339 165.137 247.878 173.575C247.274 174.697 246.648 175.841 246.044 176.963C242.418 183.761 238.965 190.667 235.577 197.595C229.988 183.567 224.096 169.367 218.01 155.253L221.42 148.39C224.42 142.563 227.376 136.693 230.225 130.802L234.649 141.182C235.642 143.707 236.635 146.232 237.627 148.757L237.649 148.735Z" fill="#121416"/>
</svg>
