<svg width="192" height="171" viewBox="0 0 192 171" fill="none" xmlns="http://www.w3.org/2000/svg">
<path d="M5.56419 159.822L0.00390625 137.449H5.02286L8.76198 154.933H9.01652L12.6266 137.449H18.764L22.3741 154.933H22.6286L26.3677 137.449H31.1608L25.5683 159.822H19.3376L15.6953 142.306H15.4408L11.7984 159.822H5.56777H5.56419Z" fill="#FEFEFE"/>
<path d="M33.8638 159.822V137.449H50.1323V141.571H38.8505V146.397H48.8561V150.233H38.8505V155.7H50.1323V159.822H33.8638Z" fill="#FEFEFE"/>
<path d="M54.3844 159.822V137.449H64.0674C66.4514 137.449 68.3084 137.933 69.6277 138.904C70.947 139.876 71.6102 141.36 71.6102 143.364C71.6102 144.579 71.3413 145.597 70.8107 146.418C70.2802 147.239 69.5524 147.852 68.6383 148.254V148.508C69.8966 148.913 70.8645 149.548 71.5457 150.412C72.2268 151.276 72.5674 152.387 72.5674 153.753C72.5674 155.693 71.9185 157.188 70.6172 158.242C69.3158 159.296 67.3369 159.822 64.6733 159.822H54.3809H54.3844ZM63.5584 146.784C64.5801 146.784 65.358 146.544 65.8922 146.063C66.4263 145.583 66.6916 144.909 66.6916 144.034C66.6916 143.16 66.4192 142.478 65.8778 141.987C65.3365 141.496 64.5622 141.252 63.562 141.252H59.3747V146.784H63.562H63.5584ZM64.1965 156.022C65.2397 156.022 66.0607 155.768 66.6558 155.255C67.2509 154.743 67.552 154.029 67.552 153.115C67.552 152.201 67.2545 151.455 66.6558 150.943C66.0571 150.43 65.2397 150.175 64.1965 150.175H59.3675V156.026H64.1965V156.022Z" fill="#FEFEFE"/>
<path d="M80.1135 159.822L74.5532 137.449H79.5722L83.3113 154.933H83.5658L87.1759 137.449H93.3134L96.9234 154.933H97.178L100.917 137.449H105.71L100.118 159.822H93.8834L90.241 142.306H89.9865L86.3442 159.822H80.1099H80.1135Z" fill="#FEFEFE"/>
<path d="M117.777 160.141C115.623 160.141 113.737 159.661 112.12 158.704C110.5 157.743 109.256 156.399 108.381 154.66C107.507 152.925 107.073 150.917 107.073 148.634C107.073 146.35 107.51 144.346 108.381 142.607C109.256 140.872 110.504 139.524 112.12 138.564C113.737 137.603 115.623 137.126 117.777 137.126C119.932 137.126 121.839 137.606 123.449 138.564C125.059 139.521 126.299 140.869 127.174 142.607C128.048 144.346 128.482 146.354 128.482 148.634C128.482 150.914 128.045 152.921 127.174 154.66C126.299 156.399 125.059 157.743 123.449 158.704C121.839 159.665 119.95 160.141 117.777 160.141ZM117.777 155.954C118.928 155.954 119.936 155.66 120.8 155.076C121.664 154.492 122.327 153.649 122.796 152.552C123.266 151.455 123.499 150.15 123.499 148.637C123.499 147.124 123.262 145.82 122.796 144.723C122.327 143.626 121.66 142.783 120.8 142.199C119.936 141.614 118.928 141.32 117.777 141.32C116.627 141.32 115.652 141.614 114.788 142.199C113.924 142.787 113.253 143.626 112.773 144.723C112.292 145.82 112.056 147.124 112.056 148.637C112.056 150.15 112.296 151.455 112.773 152.552C113.253 153.649 113.924 154.492 114.788 155.076C115.652 155.66 116.648 155.954 117.777 155.954Z" fill="#FEFEFE"/>
<path d="M131.748 159.822V137.449H141.241C143.754 137.449 145.736 138.087 147.184 139.367C148.633 140.647 149.357 142.435 149.357 144.737C149.357 146.25 148.998 147.551 148.285 148.637C147.572 149.724 146.564 150.534 145.266 151.068L149.966 159.826H144.374L140.538 151.803H136.734V159.826H131.748V159.822ZM140.792 147.996C141.9 147.996 142.768 147.709 143.395 147.132C144.022 146.555 144.338 145.759 144.338 144.733C144.338 143.708 144.022 142.909 143.395 142.321C142.768 141.736 141.9 141.442 140.792 141.442H136.734V147.996H140.792Z" fill="#FEFEFE"/>
<path d="M153.509 159.822V137.449H158.495V148.315L166.329 137.449H172.05L163.708 148.347L172.369 159.822H166.425L158.499 148.763V159.822H153.512H153.509Z" fill="#FEFEFE"/>
<path d="M183.267 160.141C180.923 160.141 178.883 159.65 177.148 158.671C175.409 157.693 174.265 156.251 173.713 154.355L178.413 153.269C178.818 154.312 179.453 155.086 180.317 155.585C181.181 156.087 182.167 156.337 183.274 156.337C184.447 156.337 185.354 156.101 185.992 155.635C186.63 155.169 186.949 154.538 186.949 153.749C186.949 153.154 186.748 152.663 186.343 152.279C185.938 151.896 185.433 151.598 184.823 151.387C184.217 151.175 183.346 150.928 182.22 150.652C180.557 150.225 179.195 149.788 178.13 149.343C177.065 148.895 176.148 148.192 175.38 147.235C174.613 146.274 174.23 144.977 174.23 143.335C174.23 142.141 174.559 141.076 175.219 140.137C175.879 139.201 176.843 138.463 178.112 137.932C179.378 137.398 180.887 137.133 182.636 137.133C184.895 137.133 186.795 137.592 188.34 138.506C189.885 139.424 190.936 140.786 191.488 142.596L186.695 143.683C186.397 142.747 185.892 142.051 185.178 141.603C184.465 141.155 183.615 140.933 182.636 140.933C181.658 140.933 180.797 141.155 180.191 141.603C179.586 142.051 179.281 142.625 179.281 143.328C179.281 143.926 179.482 144.403 179.887 144.765C180.292 145.127 180.794 145.414 181.389 145.629C181.984 145.844 182.837 146.099 183.945 146.396C185.63 146.801 187.01 147.232 188.085 147.691C189.161 148.149 190.082 148.87 190.85 149.849C191.617 150.827 192 152.15 192 153.814C192 155.072 191.66 156.173 190.979 157.123C190.297 158.073 189.301 158.811 187.992 159.345C186.684 159.879 185.11 160.145 183.278 160.145L183.267 160.141Z" fill="#FEFEFE"/>
<path d="M0 129.165V110.107H2.8859V126.605H12.361V129.165H0Z" fill="#FEFEFE"/>
<path d="M25.6216 129.437C23.933 129.437 22.4309 129.028 21.1153 128.211C19.7996 127.393 18.7779 126.243 18.0537 124.751C17.326 123.264 16.9639 121.557 16.9639 119.632C16.9639 117.707 17.326 116.004 18.0537 114.513C18.7779 113.025 19.7996 111.871 21.1153 111.053C22.4309 110.236 23.933 109.827 25.6216 109.827C27.3101 109.827 28.8337 110.236 30.1422 111.053C31.4507 111.871 32.4653 113.021 33.193 114.513C33.9172 116 34.2828 117.707 34.2828 119.632C34.2828 121.557 33.9208 123.264 33.193 124.751C32.4653 126.239 31.4507 127.393 30.1422 128.211C28.8337 129.028 27.328 129.437 25.6216 129.437ZM25.6216 126.906C26.7831 126.906 27.794 126.616 28.658 126.035C29.5184 125.454 30.1924 124.615 30.6728 123.515C31.1532 122.418 31.3934 121.123 31.3934 119.636C31.3934 118.148 31.1532 116.854 30.6728 115.757C30.1924 114.66 29.5184 113.821 28.658 113.24C27.7976 112.659 26.7831 112.369 25.6216 112.369C24.46 112.369 23.4706 112.659 22.5994 113.24C21.7283 113.821 21.0507 114.66 20.5703 115.757C20.09 116.854 19.8498 118.148 19.8498 119.636C19.8498 121.123 20.09 122.418 20.5703 123.515C21.0507 124.615 21.7283 125.454 22.5994 126.035C23.4706 126.616 24.478 126.906 25.6216 126.906Z" fill="#FEFEFE"/>
<path d="M40.3491 129.165V110.107H43.5075L53.0363 124.726H53.2263C53.1367 123.002 53.0901 121.17 53.0901 119.227V110.107H55.976V129.165H52.8176L43.2601 114.545H43.0988C43.1884 116.287 43.235 118.119 43.235 120.044V129.165H40.3491Z" fill="#FEFEFE"/>
<path d="M71.086 129.437C69.2721 129.437 67.6839 129.028 66.3216 128.211C64.9593 127.393 63.909 126.246 63.1633 124.766C62.4176 123.285 62.0483 121.575 62.0483 119.632C62.0483 117.689 62.4104 116.004 63.1382 114.513C63.8623 113.025 64.8912 111.871 66.2141 111.053C67.5369 110.236 69.0534 109.827 70.7598 109.827C72.6455 109.827 74.2623 110.257 75.6067 111.121C76.951 111.982 77.9477 113.287 78.6001 115.029L75.8505 115.9C75.3593 114.667 74.6889 113.749 73.8357 113.15C72.9825 112.552 71.9572 112.251 70.7598 112.251C69.5624 112.251 68.5802 112.545 67.709 113.136C66.8379 113.728 66.1567 114.577 65.6692 115.696C65.178 116.811 64.9343 118.123 64.9343 119.628C64.9343 121.134 65.178 122.468 65.6692 123.575C66.1603 124.683 66.8665 125.533 67.7915 126.121C68.7164 126.712 69.8241 127.006 71.1147 127.006C71.9859 127.006 72.8104 126.838 73.5919 126.501C74.3735 126.164 75.0259 125.716 75.5529 125.153V121.396L71.1685 121.206V119.055H78.4101V126.106C77.5748 127.196 76.5209 128.021 75.2518 128.584C73.9827 129.147 72.5917 129.426 71.086 129.426V129.437Z" fill="#FEFEFE"/>
<path d="M94.4175 129.165V110.107H101.96C103.867 110.107 105.362 110.526 106.452 111.358C107.542 112.19 108.087 113.455 108.087 115.14C108.087 116.194 107.861 117.073 107.406 117.782C106.951 118.492 106.345 119.008 105.581 119.335V119.471C106.671 119.815 107.495 120.364 108.058 121.12C108.621 121.873 108.901 122.841 108.901 124.02C108.901 125.655 108.37 126.92 107.309 127.817C106.248 128.716 104.674 129.165 102.584 129.165H94.4175ZM101.795 118.356C102.921 118.356 103.771 118.105 104.341 117.607C104.914 117.108 105.197 116.384 105.197 115.441C105.197 114.499 104.907 113.796 104.326 113.276C103.746 112.76 102.903 112.502 101.795 112.502H97.3034V118.356H101.795ZM102.394 126.77C103.538 126.77 104.427 126.508 105.061 125.981C105.696 125.454 106.015 124.701 106.015 123.723C106.015 122.744 105.696 121.962 105.061 121.435C104.427 120.908 103.538 120.647 102.394 120.647H97.3034V126.773H102.394V126.77Z" fill="#FEFEFE"/>
<path d="M115.027 129.165V110.107H127.987V112.613H117.913V118.112H126.897V120.618H117.913V126.662H127.987V129.168H115.027V129.165Z" fill="#FEFEFE"/>
<path d="M132.587 129.165L139.337 110.107H143.284L150.035 129.165H146.959L141.352 112.584H141.187L135.551 129.165H132.583H132.587ZM136.261 124.97V122.601H146.389V124.97H136.261Z" fill="#FEFEFE"/>
<path d="M162.915 129.437C161.209 129.437 159.703 129.028 158.395 128.211C157.09 127.393 156.071 126.243 155.344 124.751C154.62 123.264 154.254 121.557 154.254 119.632C154.254 117.707 154.616 116.004 155.344 114.513C156.068 113.025 157.086 111.871 158.395 111.053C159.703 110.236 161.209 109.827 162.915 109.827C164.783 109.827 166.403 110.3 167.776 111.243C169.146 112.186 170.114 113.613 170.677 115.516L167.898 116.388C167.461 115.025 166.823 114.011 165.98 113.337C165.138 112.666 164.116 112.329 162.919 112.329C161.721 112.329 160.739 112.62 159.868 113.201C158.997 113.781 158.326 114.624 157.853 115.732C157.38 116.839 157.147 118.137 157.147 119.625C157.147 121.113 157.384 122.41 157.853 123.518C158.326 124.626 158.997 125.468 159.868 126.049C160.739 126.63 161.754 126.92 162.919 126.92C164.152 126.92 165.195 126.594 166.048 125.942C166.902 125.289 167.572 124.264 168.063 122.866L170.813 123.737C170.232 125.662 169.25 127.089 167.873 128.024C166.493 128.96 164.84 129.426 162.919 129.426L162.915 129.437Z" fill="#FEFEFE"/>
<path d="M176.746 129.165V110.107H179.632V118.22H189.078V110.107H191.992V129.165H189.078V120.779H179.632V129.165H176.746Z" fill="#FEFEFE"/>
<path d="M109.948 60.2119V72.3034L119.572 62.6788C116.151 62.4598 112.904 61.5976 109.948 60.2119Z" fill="#FEFEFE"/>
<path d="M94.4863 61.088H97.2269C97.2269 66.884 101.593 71.6809 107.207 72.3584V58.7306C101.918 55.4494 97.8531 50.3821 95.8549 44.3774C93.8568 50.3821 89.7921 55.4494 84.5024 58.7306V72.3584C90.1171 71.6809 94.4829 66.884 94.4829 61.088H94.4863Z" fill="#FEFEFE"/>
<path d="M81.7649 60.2119C78.7779 61.6147 75.4933 62.4804 72.0308 62.6891L81.7649 72.4232V60.2119Z" fill="#FEFEFE"/>
<path d="M109.948 28.3306V57.1532C112.952 58.7681 116.336 59.7638 119.928 59.9656V38.311L109.948 28.3306Z" fill="#FEFEFE"/>
<path d="M81.7651 28.2109L71.7847 38.1914V59.9657C75.3772 59.7639 78.7611 58.7682 81.7651 57.1533V28.2109Z" fill="#FEFEFE"/>
<path d="M95.7967 6.28955L51.769 50.3172L95.7967 94.3449L139.824 50.3172L95.7967 6.28955ZM55.7824 50.3172L95.7967 10.303L135.811 50.3172L95.7967 90.3315L55.7824 50.3172Z" fill="#FEFEFE"/>
<path d="M122.669 41.0518V59.5825L131.934 50.3171L122.669 41.0518Z" fill="#FEFEFE"/>
<path d="M69.0443 40.9321L59.6558 50.3173L69.0443 59.7024V40.9321Z" fill="#FEFEFE"/>
<path d="M95.8545 67.144C93.7674 71.5133 89.4905 74.6439 84.4541 75.1161L95.7963 86.4583L107.145 75.1093C102.157 74.6029 97.9279 71.4859 95.8545 67.1475V67.144Z" fill="#FEFEFE"/>
<path d="M84.5059 55.436C90.5482 51.0565 94.4863 43.9466 94.4863 35.9301H97.2269C97.2269 43.9466 101.165 51.0599 107.207 55.436V25.5869L95.7968 14.1763L84.5059 25.4672V55.436Z" fill="#FEFEFE"/>
</svg>
